<?xml version="1.0" encoding="UTF-8"?>
<!DOCTYPE svg PUBLIC "-//W3C//DTD SVG 1.1//EN" "http://www.w3.org/Graphics/SVG/1.1/DTD/svg11.dtd">
<!-- Creator: CorelDRAW -->
<svg xmlns="http://www.w3.org/2000/svg" xml:space="preserve" width="130.132mm" height="130.153mm" version="1.1" style="shape-rendering:geometricPrecision; text-rendering:geometricPrecision; image-rendering:optimizeQuality; fill-rule:evenodd; clip-rule:evenodd"
viewBox="0 0 5218.65 5219.5"
 xmlns:xlink="http://www.w3.org/1999/xlink">
 <defs>
  <style type="text/css">
   <![CDATA[
    .fil0 {fill:white}
   ]]>
  </style>
 </defs>
 <g id="Layer_x0020_1">
  <metadata id="CorelCorpID_0Corel-Layer"/>
  <path class="fil0" d="M2467.84 5.03c-393.57,25.72 -728.67,122.43 -1032.07,273.85 -918.6,458.45 -1489.81,1437.54 -1431.71,2473.29 78.11,1392.58 1260.5,2546.02 2753.06,2463.12 1387.64,-77.07 2540.31,-1262.96 2457.31,-2755.05 -28.73,-516.36 -225.73,-1044.01 -523.88,-1423.19 -157.02,-199.7 -152.52,-185.51 -312.36,-342.65 -390.79,-384.17 -1117.41,-741.17 -1910.34,-689.37zm-1987.22 3140.9c12.24,138.56 154.77,440.72 217.49,550.9 49.31,86.62 96.97,158.68 153.87,234.39 29.43,39.15 51.51,67.55 85.18,105.26 17.7,19.82 26.45,35.19 45.15,53.96 22.81,22.9 30.38,29.4 49.04,49.81 208.75,228.38 646.24,515.45 964.89,580.96 15.81,-146.22 -3.56,-327.43 7.44,-481.09 -240.08,-5.79 -545.45,52.27 -691.1,-190.66 -99.77,-166.41 -153.82,-310.84 -325.91,-443.3 -23.83,-18.34 -45.1,-27.71 -54.83,-56.62 49.31,-58.57 266.06,-2.55 357.4,119.56 73.21,97.88 148.21,203.04 271.29,253.87 105.8,43.7 367.53,28.48 471.17,-9.45 126.44,-46.27 124.51,-111.21 207.83,-188.26 15.03,-13.9 17.97,-18.9 33.56,-34.69l24.14 -22.8c10.07,-10.92 3.08,-1.11 11.99,-14.89 -909.86,-169.02 -918.28,-596.16 -988.8,-622.39 -23.92,-8.9 -271.64,-12.72 -315.19,-13.19 -160.88,-1.73 -406.03,33.18 -524.62,128.63zm-54.7 -257.05c141.21,-20.45 260.22,-50.26 411.77,-49.39 144.59,0.83 292.02,22.7 433.37,23.77 -46.5,-375.05 -14.32,-557.44 163.82,-826.08 60.92,-91.87 75.72,-45.57 43.95,-172.73 -17.99,-72.02 -31.43,-143.21 -39.71,-218.7 -16.53,-150.84 -11.03,-346.57 83.97,-427.96 132.46,-6.56 264.2,32.72 367.16,83.67 90.66,44.86 219.31,137.14 256.2,199.58 40.11,-6.6 84.27,-24.35 126.14,-34.86 354.69,-89.06 661.51,-59.85 1002.06,40.64 42.89,-34.59 73.37,-73.6 117.72,-109.04 44.47,-35.53 85.6,-62.36 143.59,-92.47 92.33,-47.95 255,-99.22 378.4,-86.49 91.69,94.65 99.96,261.51 84.75,419.17 -7.26,75.25 -21.5,152.63 -38.25,221.97 -31.58,130.73 -35.04,84.25 30.81,180.62 69.68,101.98 126.54,218.52 159.21,358.92 45.67,196.27 16.69,290.62 -11.83,476.51 116.17,-11.75 217.84,-30.75 338.87,-30.27 70.85,0.28 295.5,41.51 315.64,38.13 37.28,-389.59 8.18,-680.55 -113.04,-1021.68 -423.29,-1191.16 -1814.88,-1808.84 -3027.14,-1236.21 -138.28,65.32 -252.98,142.98 -363.62,222.82 -334.25,241.23 -610.03,621.15 -749.58,1009.31 -127.8,355.46 -147.89,628.39 -114.26,1030.77zm3694.54 75.53c201.29,1.97 254.56,-41.82 502.86,4.73 48.37,9.07 107.54,28.67 151.32,33.04l10.31 -68.74c-118.59,-20.11 -219.76,-41.08 -345.33,-36.39l-261.56 24.41c-51.15,6.02 -47.42,-1.25 -57.6,42.95zm-1103.98 1806.84c56.99,-3.3 153.24,-32.9 203.86,-48.76 0.55,-78.53 1.08,-158.1 0.36,-236.58 -0.69,-75.49 -37.22,-137.01 -120.74,-123.28 -78.16,12.85 -83.8,78.71 -83.52,161.69 0.28,82.29 0.04,164.63 0.04,246.93zm-2582.05 -1830.5l28.25 148.79c96.28,-25.1 153.54,-93.01 375.45,-117.59 165.02,-18.28 311.73,7.25 470.18,5.39 -15.64,-72.16 -4.25,-54.46 -180.48,-68.84 -294.73,-24.06 -389.96,-29.91 -693.4,32.26zm1768.92 1832.38l201.51 27.25c3.28,-87.51 0.93,-175.58 1.05,-260.82 0.12,-89.61 0.24,-169.29 -90.91,-177.93 -93.86,-8.9 -113.34,64.1 -113.02,147.37 0.32,84.7 -4.35,181.01 1.37,264.14zm408.97 38.91l200.06 -11.14c3.2,-109.46 0.6,-221.29 0.6,-329.89 0,-100.2 17.87,-238.55 -109.35,-230.61 -116.41,7.26 -94.11,140.11 -94.11,238.23 0,91.73 -9.22,249.56 2.8,333.41zm1485.68 -1793.89c-83.37,195.06 -218.11,331.21 -377.21,429.2 -200.22,123.31 -355.29,153.34 -607.21,205.82 1.18,1.76 3.23,2.11 3.92,5l77.14 77.96c67.93,67.31 146.69,211.53 180.35,307.58 67.48,192.55 49.12,389.13 49.12,606.11 128.55,-30.68 388.22,-193.79 477.65,-259.96 156.1,-115.51 262.88,-214.74 381.39,-349.58 196.86,-223.98 450.91,-680.35 482.15,-984.25 -212.52,-68.5 -437,-64.15 -667.3,-37.87z"/>
 </g>
</svg>
