<?xml version="1.0" encoding="UTF-8"?>
<!DOCTYPE svg PUBLIC "-//W3C//DTD SVG 1.1//EN" "http://www.w3.org/Graphics/SVG/1.1/DTD/svg11.dtd">
<!-- Creator: CorelDRAW -->
<svg xmlns="http://www.w3.org/2000/svg" xml:space="preserve" width="144.574mm" height="144.574mm" version="1.1" style="shape-rendering:geometricPrecision; text-rendering:geometricPrecision; image-rendering:optimizeQuality; fill-rule:evenodd; clip-rule:evenodd"
viewBox="0 0 50238.22 50238.22"
 xmlns:xlink="http://www.w3.org/1999/xlink">
 <defs>
  <style type="text/css">
   <![CDATA[
    .fil0 {fill:white}
   ]]>
  </style>
 </defs>
 <g id="Layer_x0020_1">
  <metadata id="CorelCorpID_0Corel-Layer"/>
  <path class="fil0" d="M-0 5509.17l0 39350.54c0,1876 665.1,3548.93 2359.23,4598.88 934.58,579.2 1696.91,779.63 2774.69,779.63l39335.22 0c1720.54,0 3008.06,-143.65 4324.15,-1522.19 1392.54,-1458.56 1444.94,-2669.29 1444.94,-4484.62l0 -39109.07c0,-1369.57 -484.68,-2594.44 -1444.94,-3600.15 -1211.32,-1268.8 -2380.11,-1522.19 -3960.26,-1522.19l-39407.99 0c-1528.93,0 -2955.21,405.24 -4017.04,1562.39 -1091.44,1189.43 -1408,2346.58 -1408,3946.78zm27688.17 23418.57c61.16,-1689.71 1905.51,-3310.94 3778.21,-3278.1 1874.47,32.87 3680.53,1712.06 3656.97,3505.43l12.82 13538.9 7568.44 36.21c81.76,-717.36 60.88,-12547.12 24.98,-14264.43 -8.86,-423.45 -1.36,-1522.5 -271.74,-1873.64 58.2,-1204.13 -1442.37,-3368.41 -2096.42,-4097.45 -2826.22,-3150.19 -7525.8,-3968.63 -11087.03,-1145.16 -1088.97,863.38 -951.08,990.32 -1529.76,1577.37 -100.81,-24.5 -45.73,92.92 -67.62,-154.25 -0.76,-638.62 74.5,-2153.09 -49.55,-2685.66l-7529.24 -21.16 -33.71 22631.89c573.74,114.6 7249.48,101.4 7592.45,-31.45l31.2 -13738.5zm-17316.48 -22036.77c-2104.17,463.94 -4105.09,2581.76 -3477.9,5377.75 466.09,2077.79 2608.17,4070.48 5367.08,3448.99 2196.32,-494.72 4001.51,-2631.14 3454.52,-5338.17 -425.96,-2108.06 -2601.11,-4093.28 -5343.69,-3488.57zm4632.45 13267.61c-194.94,-140 -549.52,-86.32 -848.19,-85.52 -1579.28,4.14 -5603.2,-75.13 -6608.7,19.6 -121.38,629.52 -39.54,17715.19 -39.54,19759.42 0,850.62 -68.42,2043.32 25.92,2852.52l7545.54 24.29c125.03,-1135.98 24.25,-18266.59 24.25,-21187.23 0,-276.6 98.93,-1194.99 -99.28,-1383.09z"/>
 </g>
</svg>
