<?xml version="1.0" encoding="UTF-8"?>
<!DOCTYPE svg PUBLIC "-//W3C//DTD SVG 1.1//EN" "http://www.w3.org/Graphics/SVG/1.1/DTD/svg11.dtd">
<!-- Creator: CorelDRAW -->
<svg xmlns="http://www.w3.org/2000/svg" xml:space="preserve" width="94.5145mm" height="109.027mm" version="1.1" style="shape-rendering:geometricPrecision; text-rendering:geometricPrecision; image-rendering:optimizeQuality; fill-rule:evenodd; clip-rule:evenodd"
viewBox="0 0 3725.66 4297.72"
 xmlns:xlink="http://www.w3.org/1999/xlink">
 <defs>
  <style type="text/css">
   <![CDATA[
    .fil0 {fill:#30C482}
   ]]>
  </style>
 </defs>
 <g id="Layer_x0020_1">
  <metadata id="CorelCorpID_0Corel-Layer"/>
  <path class="fil0" d="M1008.01 2830.95c-3.78,14.05 -5.88,29.6 -5.88,45.96 0,41.7 13.62,78.14 33.92,97.85 3.59,6.9 7.85,11.33 16.16,17.47 6.55,29.76 73.43,68.21 94.07,72.36 5.14,99.28 1.1,206.24 1.66,306.59 0.27,49.25 -0.61,98.9 -0.64,148.2 -0.03,50.91 -7.48,97.15 35.44,122.31 3.66,15.61 26.38,31.17 41.32,45.97 12.58,12.46 34.17,39.89 49.36,44.34 4.18,8.07 6.14,11.49 11.75,17.12 11.08,11.12 4.7,5.53 17.12,11.8 2.18,7.95 -0.2,3.02 6.09,11.16l38.07 38.44c8.99,9.09 14.22,14.01 23.09,22.97 8.69,8.78 15.87,18.15 26.38,21.19 9.1,17.76 21.22,28.15 37.24,37.21 3.09,10.77 77,86.56 90.47,90.44 9.11,17.87 20.57,28.07 37.28,37.26 3.28,15.2 28.72,33.82 41.1,46.4 12.27,12.46 31.31,37.26 46.34,41.1 10.08,18.04 17.09,24.78 35.21,35.09 3.39,14.91 33.21,38.96 43.66,48.97 18.98,18.2 33.14,39.97 48.68,43.7 6.65,11.36 3.02,7.66 12.5,17.73 11.27,11.98 7.36,7.88 19.9,14.44 5.93,19.03 34.8,30.75 54.14,30.73 24.58,-0.04 52.23,-17.08 56.25,-32.74 15.5,-9.05 23.46,-15.9 32.41,-32.21 13.56,-3.41 88.02,-82.48 90.23,-90.49 16.15,-8.85 28.37,-19.93 37.26,-37.24 13.18,-3.79 36.74,-31.27 46.91,-41.56 9.59,-9.69 39.25,-31.57 43.59,-48.88 16.29,-9.17 30.06,-22.27 40.55,-40.41 8.81,-1.87 86.39,-76.69 90.26,-90.57 11.98,-6.16 6.31,-0.8 17.25,-11.79 10.88,-10.93 5.46,-4.88 11.75,-17.15 7.1,-1.97 3.39,-0.04 11.18,-6.07l38.41 -38.07c6.17,-6.22 43.07,-40.03 46.1,-51.65 15.76,-8.74 18.14,-10.03 26.53,-27.05 11.98,-3.14 77.05,-67.68 91.13,-84.72 0.9,-1.09 3.33,-4.32 4.02,-5.4 6.3,-9.91 1.43,1.61 3.94,-8.7 12.38,-7.47 1.87,1.14 10.11,-7.99 4.46,-4.94 5.2,-6.15 8.62,-12.97 4.32,-8.59 6.76,-16.46 8,-26.66l1.34 -519.25c29.14,-13.15 86.89,-40.4 94.4,-73.75 20.45,-14.67 33.52,-45.84 41.6,-79.1 7.08,-29.12 12.48,-79.01 -6.17,-101.34 -1.07,-27.55 -20.01,-65.99 -39.77,-76.13 -1.45,-28.43 8.41,-28.61 21.8,-49.57 8.56,-13.4 16.17,-30.43 20.69,-46.28 9.64,-33.8 17.53,-84.31 -1.94,-110.86 0.22,-17.32 -5.31,-32.34 -15.03,-42.07 -8.72,-25.14 -20.11,-29.08 -26.55,-51.08 13.51,-28.72 30.6,-40.64 41.86,-78.58 4.13,-13.92 8.95,-36.41 10.51,-49.5 0.93,-7.85 1.88,-22.6 0.8,-30.22 -2.09,-14.71 -4.97,-16.27 -10.64,-21.5 9.38,-46.92 -38.17,-89.24 -51.45,-116.59 8.38,-18.2 184.28,-172.04 220.62,-263.88 13.35,-8.64 67.32,-100.59 69.98,-123.73 0.93,-1.01 2.22,-4.03 2.6,-3.2 0.37,0.82 2.01,-2.44 2.51,-3.18 3.69,-5.45 3.91,-5.4 6.3,-9.91 4.91,-9.24 6.82,-15.75 10.43,-25.33 12.91,-18.25 45.66,-100.64 44.34,-123.52 13.66,-12.54 14.43,-34.29 21.31,-56.85 6.33,-20.76 12.27,-45.52 15.78,-70.03 7.9,-19.97 12.16,-48.04 8.96,-72.07 5.58,-6.46 2.15,0.43 6.15,-10.24l11.73 -127.06c0.83,-24.44 0.37,-111.88 -7.01,-137.32l-4.96 -12.25 3.79 0.72c-2.44,-55.86 -7.54,-74.16 -17,-123.03l-5.95 -25.77c-3.68,-8.11 -2.33,-5.01 -6.67,-9.98 3.86,-20.77 -26.28,-129.96 -40.26,-143.57 -1.77,-10.63 -3.46,-18.33 -7.21,-27.02 -10.69,-24.75 -1.64,-11.89 -13.5,-15.94 1.09,-29.18 -38.51,-101.01 -55.42,-128.98 -7.88,-13.05 -14.34,-27.65 -26.74,-37.56 -1.81,-19.69 -23.12,-43.88 -34.23,-60.04 -7.29,-10.6 -30.39,-47.16 -40.79,-51.09 -6.69,-13.67 -3.97,-10.02 -13.55,-22.53 -10.77,-14.06 -8.29,-11.02 -19.72,-17.96 -2.82,-10.29 3.07,0.82 -5.89,-12.46l-60.97 -66.68c-12.79,-13.42 -14.83,-17.23 -27.34,-20.88l-29.28 -26.42c-7.51,-18.14 -81.52,-75.4 -100.12,-80.24 -10.73,-16.28 -32.08,-26.89 -52.94,-40.75 -22.29,-14.81 -38.13,-23.27 -61.15,-36.16 -40.35,-22.59 -89.36,-46.12 -134.9,-62.71 -18.26,-8.96 -64.61,-29.43 -88.24,-29.32 -11.33,-11.52 -1.58,-4.46 -21.26,-10.77 -11.13,-3.57 -14.48,-4.51 -28.48,-6.81 -22.89,-8.78 -64.81,-19.74 -93.46,-18.47 -16.93,-15 -112.37,-21.7 -138.73,-16.69 -7.1,-7.5 -9.42,-7.98 -28.21,-8.91 -67.75,-3.35 -160.53,1.96 -228.11,13.17 -3.86,0.64 -14.89,2.07 -17.7,2.68l-23.04 8.09c-15.5,-2.75 -45.74,2.76 -55.09,8.64 -25.8,2.89 -33.21,5.9 -54.17,11.82 -9.2,2.59 -14.21,3.21 -23.85,6.37 -19.68,6.47 -9.82,-0.54 -21.01,10.95 -21.38,-0.05 -58.01,13 -69.97,22.71 -36.8,10.43 -221.55,94.1 -252.41,135.66 -17.13,4.28 -103.59,66.52 -108.33,84.02 -10.69,6.9 -11.26,6.96 -20.62,15.23 -1.31,1.15 -6.95,6.75 -8,7.94 -6.33,7.14 -1.84,0.87 -7.66,9.97 -11.73,3.7 -13.38,6.83 -24.48,18.35l-44.29 47.85c-3.67,3.91 -9.59,9.67 -12.35,13.23 -8.58,11.06 -4.9,2.84 -7.91,14.39l-15.45 13.09c-10.69,12.43 -7.16,8.68 -12.39,21.19 -6.85,3.52 1.66,-4.19 -10.16,7.6 -16.14,16.1 -67.55,92.45 -69.6,105.79 -28.58,23.85 -103.02,185.21 -108.66,219.62 -13.05,13.23 -37.87,103.23 -35.46,121.27 -39.83,53.84 -57.77,455.53 -17.27,525.78 7.29,74.88 115.67,390.82 175.11,429.23 18.34,48.3 116.94,161.03 158.76,201.81 15.2,14.82 52.01,43.6 61.44,62.18 -10.11,22.2 -26.38,32.06 -40.1,62.81 -8.37,18.76 -20.06,56.43 -21.54,80.32 -5.42,87.21 52.04,141.77 52.78,153.26 -7.67,24.63 -30.65,49.8 -42.6,86.85l0.57 14.02c-27.13,35.88 -1.51,116.13 19.31,149.55 13.98,22.45 22.92,18.96 22,49.45 -15.15,7.7 -27.09,29.23 -29.99,48.49 -9.63,10 -15.35,28.08 -18.63,46.6zm171.56 -318.01c-5.67,6.37 -19.46,19.95 -27.37,25.29 -16.56,54.39 -9.95,58.08 11.73,98.99 4.73,-0.3 7.55,-7.8 3.54,2.95 36.68,13.28 31.33,13.31 76.62,13.03 28.91,-0.17 57.97,-0.22 86.88,0.04 57.83,0.53 115.87,-0.09 173.75,-0.09 156.03,0 947.59,6.38 1032.24,-2.06 11.23,-8.57 14.16,-13.63 25.91,-15.81 19.23,-34.97 23.68,-50.93 9.87,-97.04 -6.76,-4.52 0.56,2.53 -8.4,-7.28 -0.8,-0.87 -3.32,-3.87 -4.06,-4.84 -4.6,-5.97 -3.2,-4.25 -5.2,-8.04 -62.39,-18.87 -91.53,-11.44 -166.3,-11.47l-868.74 -0.54c-70.73,0.02 -291.18,-7.79 -340.47,6.88zm-27.07 311.46c-22.58,73.53 4.78,116.05 81.16,115.92l1252.28 -0.02c80.32,0.28 110.08,-38.86 86.47,-115.9 -6.55,-3.55 -16.37,-13.63 -20.14,-20.74 -65.28,-21.05 -253.2,-11.66 -337.25,-10.47 -111.98,1.59 -225.16,0.13 -337.28,0.13 -186.35,0 -511.72,-7.02 -679.63,0.49 -27.68,9.72 -33.11,23.73 -45.62,30.59zm820.42 1185.57l1.21 2.92 -208.77 -1.35 -10.96 -1.57c-1.71,22.89 19.04,34.34 49.26,63.85 80.43,78.57 42.86,66.12 145.38,-28.41 17.16,-15.83 21.78,-11.83 23.88,-35.44zm-609.6 -371.74c25.03,14.17 154.75,150.66 187.4,182.61 52.43,51.32 30.7,54.22 132.84,52.19 60.9,-1.21 122.96,-0.39 183.97,-0.35 61.08,0.05 123,-0.85 183.97,0.38 108.74,2.2 90.76,-26.58 220.08,-148.99 26.83,-25.4 67.5,-76.1 95.03,-90.75 8.21,-17.91 18.17,-16.77 27.37,-37.31 -13.5,-24.13 -68.88,-44.84 -84.19,-65.45 -45.31,-7.8 -72.71,38.09 -112.6,51.3 -0.5,0.8 -1.43,1.88 -1.75,2.23l-6.37 6.62c-14.4,12.64 -55,40.7 -71.31,43.64 -12.06,15.61 -32.69,21.7 -54.35,16.83 -17.84,-4.01 -112.28,-65.97 -125.38,-82.59 -29.11,-5.52 -42.62,-33.47 -75.6,-41.2 -30.37,8.34 -41.17,30.67 -67.22,35.3 -11.91,17.59 -64.56,49.16 -83.8,61.3 -22.41,14.14 -67.55,48.87 -97.25,14.85 -15.41,-3.44 -19.91,-8.18 -33.13,-16.93 -5.85,-3.87 -10.64,-6.67 -14.85,-10.32 -8.67,-7.54 -5.68,-5.4 -7.96,-9.37 -40.54,-13.7 -93.83,-76.35 -140.35,-72.91 -13.69,20.34 -72.53,40.72 -86.96,66.7 9.73,21.43 23.77,23.59 32.42,42.22zm-199.25 -1402c-5.5,12.78 -17.19,21.56 -20.18,42.35 -4.04,28.17 4.57,37.57 5.87,55.42l38.47 32.72 118.36 1.04 110.07 -0.01 144.29 0.13 107.26 0.04 144.04 -0.5 109.42 -0.09 145.19 0.69 106.8 -0.19 143.57 -0.35 111.27 -0.11c45.87,0.24 82.92,-3.42 118.43,-6.01 6.64,-9.01 -0.15,-0.19 7.91,-9.18l21.31 -22.75c0.72,-0.73 2,-2.13 3.1,-3.08 -0.37,-11.81 3.63,-25.87 2.1,-43.2 -1.79,-20.3 -7.37,-20.53 -10.69,-36.83 -1.2,-0.73 -2.91,-3.43 -3.46,-2.42 -1.41,2.52 -15.05,-22.58 -60.59,-24.42 -29.13,-1.18 -62.91,-0.66 -92.27,-0.26 -295.35,4.02 -602.24,-1.83 -899.4,0.3 -59.25,0.42 -119.64,0.54 -178.86,-0.05 -68.38,-0.69 -122.44,-7.43 -172,16.76zm122.61 1129.33l0.2 80.6c25.81,4.11 14.4,-7.95 38.4,-11.68 5.57,-9.54 78.93,-62.94 102.93,-62.7 22.17,0.22 10.99,-2.5 19.91,6.79 18.81,0.29 84.95,43.44 105.67,61.06 0.71,0.6 1.9,1.67 2.53,2.27 6.9,6.44 2.68,1.63 6.39,7.36 9.27,3.47 5.22,0.17 15.53,6.77 17.1,10.94 7.83,4.55 14.56,14.03 20.71,2.5 31.45,21.44 63.34,30.33 5.67,-7.79 1.29,-2.89 8.44,-9.47 0.13,-0.12 8.48,-6.92 8.89,-7.2 9.72,-6.6 12.25,-7.06 22.51,-11.25 0.58,-0.79 1.66,-2.95 1.92,-2.23l49.54 -35.05c12.67,-8.47 45.63,-33.1 60.36,-35.57 16.41,-25.35 52.04,-37.18 89.39,-17.49 0.64,0.34 12.4,7.2 12.96,7.61l14.64 14.23c7.16,1.4 3.33,-0.08 12.69,4.86l43.18 28.16c12.1,8.2 45,26.33 50.42,37.07 11.46,4.59 10.97,3.71 20.23,9.69 0.21,0.14 8.01,6.23 9.07,7.23 6.84,6.42 2.77,1.98 8.33,9.4 33.36,-9.07 43.72,-27.2 63.52,-30.25 6.6,-9.66 0.05,-1.97 8.13,-9.29 1,-0.91 8.54,-6.71 8.95,-6.98 8.57,-5.68 11.1,-6.87 22.82,-11.68 7.98,-12.15 32.37,-24.45 47.95,-35.16 17.3,-11.89 33.75,-28.31 56.65,-28.45 17.02,-27.07 69.56,15.92 84.01,25.91 15.16,10.47 23.52,15.54 37.06,24.1 19.04,12.05 21.46,19.78 43.34,16.84l-2.52 -74.29 -1.78 -292.57 3.02 2.88c-99.65,-7.28 -450.5,-1.39 -577.43,-1.37 -95.42,0.01 -190.74,0.16 -286.17,0.03 -65.55,-0.09 -234.74,-8.43 -288.74,2.4l-0.83 283.05zm274.02 -1285.4l18.16 0 -2.06 -472.03c-26.43,-29.85 -72.45,-62.46 -107.66,-92.16 -58.01,-48.94 -168.05,-131.47 -209.11,-184.49 -21.98,-28.38 -61.34,-85.89 -72.32,-127.03 -10.06,-8.4 -13.74,-26.82 -12.83,-42.27 -31.05,-27.75 -26.08,-170.55 -17.59,-218.94 27.75,-158.27 179.19,-294.47 342.32,-297.02 24.39,-0.38 38.06,2.7 59.94,6.85 17.98,3.41 33.78,5.6 48.78,15.86 13.36,-1.27 31.07,3.57 39.47,13.56 27.89,8.38 29.09,17.81 58.81,3.33 54.54,-26.56 103.06,-37.07 166.02,-34.98 172.71,5.72 123.55,71.34 211.65,25.15l7.38 -1.69 71.06 149.65c36.33,26.73 51.86,124.8 55.48,179.29l-1.46 22.34c-7.47,57.48 -23.89,146.82 -66.39,176.64 -8.45,30.03 -74.11,101.84 -125.03,86.87 -33.66,-9 -88.52,-65.27 -98.86,-96.78 -10.37,-4.88 -25.95,-32.79 -26.28,-48.63 -6.22,-6.03 -2.81,-1.43 -7.68,-9.61 -0.82,-1.38 -2.99,-5.64 -3.67,-7.28 -4.22,-10.06 -3.89,-12.26 -6.6,-24.56 -16.78,-31.35 1.64,-32.88 -19.82,-50.16 -16.76,13.38 -4.76,-2.04 -11.81,23.21l-20.91 67.86c-12.77,28.13 -48.35,89.52 -76.22,103.91 -9.43,17.21 -18.01,26.15 -37.64,32.75 -18.4,24.36 -60.94,10.65 -83.6,-8.81 -17.23,-14.8 -47.56,-40.56 -53.07,-62.49 -8.66,-6.16 -1.84,0.55 -11.42,-10.56 -35.41,-41.08 -56.37,-124.97 -60.63,-177.31 -6.66,-81.73 23.06,-142.61 51.65,-201.12 9.44,-12.69 4.49,-2.29 9.33,-18.82l-21.36 -12.69c-5.1,-1.6 -11.92,-2.03 -16.52,-2.65l-15.32 -0.02 -0.01 -30.64 0.01 30.48c-88.29,0.8 -138.87,34.37 -177.22,83.75 -48.16,62 -55.71,115.36 -50.25,214.53 4.5,5.02 19.74,49.57 17.98,64.92 14.01,12.93 6.13,5.39 15.72,25.4 5.63,11.77 4.83,10.88 12.13,22.23 11.59,22.79 28.79,44.09 43.02,60.08l47.39 47.98c0.25,-0.72 1.23,1.7 1.75,2.6 16.57,7.13 17.41,8.03 26.54,23.3 19.28,5.28 105.65,79.5 108.96,89.08 13.36,8.01 22.32,11.5 31.93,27.47 12.52,3.23 100.64,74.7 104.13,88.98 8.72,6.39 4.5,-2.69 12.7,15.33 4.72,10.38 4.28,14.77 6.43,25.44l0.55 150.99 -0.57 38.55 -0.02 21.42 -0.06 35.49 0.15 158.47 0.11 38.52 -0.18 17.92 1.5 39.07c-0.9,0.42 -1.88,0.95 -2.91,1.56 -1.07,0.63 -2.02,1.25 -3.06,1.88l4.26 0c-0.34,-0.6 -0.73,-1.22 -1.2,-1.88l-0.44 -0.59 1.47 0 294.88 -0.06 -2.88 -7.71 1.06 -78.5 -0.3 -176.8 -0.17 -78.27 1.06 -164.01c6.17,-26.25 6.37,-33.64 26.78,-45.94 2.89,-11.56 8.53,-11.53 19.94,-20.77 7.93,-6.41 14.69,-12.81 24.95,-21.09 15.1,-12.2 35.21,-33.69 50.85,-37.96 6.56,-10.82 0.6,-2.15 7.76,-10.08 0.21,-0.24 7.76,-7.48 8.16,-7.81 11,-9.13 9.64,-7.85 21.21,-13.86 4.88,-9.99 84.77,-79.03 103.72,-84.79 8.74,-15.68 21.85,-25.56 37.52,-32.33 9.4,-19.73 30.95,-32.7 45.42,-49.75 11.99,-14.12 25.54,-41.88 37.45,-48.67 5.47,-15.28 13.67,-42.95 27.65,-53.29 -1.64,-13.96 6.28,-43.62 11.66,-48.91 11.75,-75.02 6.28,-111.37 -11.51,-173.7 -31.14,-48.68 -34.83,-64.46 -78.18,-97.09 -34.09,-25.67 -73.64,-44.55 -127.74,-41.01l-58.01 9.18c2.01,22.63 5.07,13.99 5.75,29.5l-70.39 -149.81 20.15 -4.61c6.54,-5.04 -1.11,-0.67 10.82,-6.06 38.15,-17.26 106.77,-19.53 145.32,-12.43 45.26,8.34 90.88,23.54 126.75,46.08 59.91,37.66 152.69,134.9 153.95,193.32 29.82,26.74 33.85,153.58 17.93,211.33 -2.85,10.36 -1.66,7.82 -5.67,13.76 5.24,28.85 -20.94,98.78 -39.08,119.56 -11.39,34.4 -46.44,84.08 -65.21,104.31 -40.42,43.53 -230.12,208.83 -260.97,221.19 -7.58,11.83 -30.37,34.11 -43.68,37.33 -17.98,46.83 1.12,394.61 -6.68,483l365.42 -1.38c9.09,-10.75 -0.96,-2.75 10.27,-4.08 9.72,-15.03 11.32,-16.39 28.14,-23.41l99.88 -93.62c6.91,-13.69 14.19,-25.23 32.12,-35.15 2.07,-7.47 72.62,-102.86 79.05,-105.67 5.71,-12.8 3.24,-10.13 10.77,-21.05 8.51,-12.35 4.55,-7.04 13.38,-13.77 2.86,-18.07 20.86,-49.09 32.5,-59.29 3.94,-12.46 47.15,-114.59 58.64,-126.7 -0.47,-12.14 28.05,-106.25 35.44,-121.58l11.45 -59.86c0.34,-1.18 1.09,-2.98 1.38,-3.91l3.35 -7.14 3.33 -41.52c4.88,-58.72 10.79,-110.63 9.33,-173.7l2.11 -42.62c-8.46,-14.44 -18.37,-123.96 -25.1,-154 -11.32,-50.53 -25.53,-93.09 -39.15,-140.66 -8.88,-19.59 -17.18,-41.75 -26.76,-63.85 -10.69,-24.65 -24.2,-43.27 -26,-64.77 -11.31,-9.55 -17.37,-22.63 -23.27,-40.03 -12.42,-6.52 -26.21,-39.79 -36.68,-55.19 -14.87,-21.87 -32.27,-39.97 -36.4,-59.06 -16.46,-8.18 -19.9,-19.19 -28.07,-33.95 -11.85,-5.29 -36.58,-38.1 -47.62,-50.09l-37.72 -39.04c-4.47,-4.82 -3.71,-4.27 -6.36,-7.72l-3.3 -5.34 -29.43 -27.6 -28.34 -19.58c-9.89,-8.05 -19.24,-15.67 -28.43,-22.69l-52.16 -41.29c-12.44,-4.73 -10.01,-3.02 -19.8,-9.67 -12.57,-8.54 -7.75,-5.31 -14.01,-13.73 -9.57,-1.43 -115.4,-56.54 -123.79,-64.58 -12.56,-3.22 -17.28,-4.48 -29.85,-10.21 -4.79,-2.18 -6.48,-3.07 -10.11,-5.4 -8.53,-5.46 -3.13,-0.88 -8.61,-7.39 -16.03,0.43 -60.57,-14.2 -72.12,-23.77 -34.8,-4.75 -78.6,-21.31 -109.35,-26.49 -6.56,-1.1 -11.62,-1.09 -17.97,-2.84 -1.56,-0.43 -3.04,-0.93 -4.43,-1.39l-8.16 -3.95c-0.76,-1.83 -2.71,-1.37 -3.87,-2.33 -26.42,3.39 -46.49,-2.03 -70.84,-6.57l-204.36 -1.45c-30.29,2.41 -59.41,12.11 -91.31,8.01l-126.39 33.19 -76.99 23.37c-4.39,3.96 -3.17,3.36 -10.26,7.61 -6.03,3.62 -3.81,2.34 -10.77,5.25 -10.02,4.19 -16.88,5.83 -26.67,9.32l-118.28 58.6c-18.11,21.25 -134.3,83.95 -240.44,200.78 -16.16,17.79 -54.41,66.7 -69.15,75.36 -1.83,6 -61.22,103.58 -71.76,109.6 -5.81,16.03 -13.35,33.89 -26.73,45.32 0.11,9.34 -48.95,121.25 -53.99,128.43 -3.68,14.66 -6.22,22.99 -11.16,38.59 -0.48,1.51 -4.04,12.01 -5.23,14.4 -5.59,11.21 -3.91,7.5 -8.11,11.31 -0.65,28.56 -13.47,66.64 -19.22,99.23 -5.16,29.25 -10.05,84.42 -20.85,99.14 7.55,23.6 1.59,58.39 1.68,85.5 -2.5,59.09 3.22,108.32 8.64,162.81l3.58 46.72c8.41,11.04 6.63,22.51 10.9,41.3l84.26 249.25c9.27,8.07 16.2,24.73 24.99,40.75 8.22,14.98 19.94,30.71 22.59,47.07 9.89,7.42 4.21,0.29 13.26,13.84 7.08,10.6 5.96,11.05 10.65,20.98 5.64,2.43 79.61,100.64 81.09,107.71 18.19,11.28 27.26,22.86 35.35,38.42 13.28,5.29 30.48,27.13 47.11,42.19l47.81 45.87c41.36,17.2 13.49,28.43 79.11,28.48 35.82,0.03 71.59,-0.2 107.42,-0.2 66.04,0 133.23,-2.3 199.08,0.06zm-561.63 1434.11l0.35 -64.38c-17.77,-15.45 -114.76,-7.16 -138.18,-5.9l-0.9 136.64 138.35 1.3 0.38 -67.66zm1726.4 -64.38l-0.11 53.9 0.67 77.51 137.56 0.67 0.73 -137.5c-25.64,-1.93 -118.88,-12.01 -138.84,5.42zm478.61 -1085.82c5.09,14.33 28.93,36.63 43.22,42.53 11.68,-7.46 44.96,-36.62 48.97,-50.93 16.12,-8.24 34.33,-26.04 42.88,-42.33 -15.19,-23.75 -46.23,-47.55 -67.53,-70.38 -27.29,-29.24 -44.52,-44.72 -68.72,-69.17 -24.13,-24.37 -44.87,-44.82 -69.04,-68.97 -17.62,-17.6 -53.21,-60.77 -75.64,-68.85 -10.28,7.72 -10.67,8.8 -19.19,17.9 -3.03,3.24 -4.79,4.99 -7.38,8.19 -9.76,12.03 -2.57,0.94 -9.67,13.62l-28.82 24.38c-11.57,11.46 -17.85,15.4 -25.41,29.31 6.74,11.68 60.37,68.19 75.24,73.8 7.23,14.11 5.03,10.23 16.6,21.86 13.56,13.64 6.79,9.17 21.72,16.76 6.3,15.05 77.06,84.57 89.18,89.27 6.84,12.49 3.15,8.16 14.34,19.22 13.22,13.07 4.22,6.47 19.24,13.78zm-2775.36 -8.82c3.87,13.59 37.95,43.92 48.84,51.28 23.51,-9.29 39.28,-42.91 54.52,-42.12l22.2 -33.34c11.58,-4.3 11.56,-5.94 24.1,-19 9.53,-9.92 15.45,-16.08 25.43,-25.83 16.5,-16.12 40.77,-37.09 47.52,-51.15 10.51,-6.75 6.57,-3.23 16.13,-12.67 11.34,-11.19 7.57,-6.81 14.4,-19.22 15.3,-5.59 68.14,-61.38 75.36,-73.83 -5.82,-11.59 -40.09,-48.81 -54.53,-53.67l-36.06 -39.76c-19.05,7.04 -264.35,252.2 -280.85,277.4 7.53,16.88 26.66,33.09 42.94,41.91zm2721.52 1097.64c-2.79,-6.24 6.06,-10.11 -30.32,-10.64l-107.86 1.1 0.07 137.87 122.56 0.56c18.12,-5.22 5.06,5.85 16.15,-9.91l-0.6 -118.97zm158.36 -2166.65l170.31 0.42 62.92 0.02 175.65 -1.53c3.73,-3.58 7.77,6 8.19,-29.21 0.14,-11.47 -0.83,-24.19 -0.8,-36.18 0.07,-22.93 1.06,-45.91 -0.44,-68.78 -20.02,-5.94 -391.15,-6.29 -424.75,-1.51l-0.95 121.11c5.12,17.92 -6.44,4.75 9.87,15.67zm-1235.42 -211.46c-4.61,4.51 -3.24,2.79 -7.94,9.63 -2.93,4.27 -2.95,4.3 -5.94,10.27 -4.79,9.56 -4.5,9.06 -8.4,20.46 -23.66,-3.33 -22.09,-6.51 -30.67,-27.75 -3.63,-8.98 -10.97,-33.88 -13.79,-38.13l-0.41 -90.11c14.31,-30.01 9.31,-54.3 35.27,-68.61 20.53,9.87 6.84,2.99 21.11,22.62 15.22,45.44 18.87,81.43 14.13,137.92 -9.24,11.87 -5.96,10.42 -3.35,23.69zm-274.22 -282.53c59.64,-6.32 67.04,-6.68 126.94,-0.02 -2.25,25.46 -18.76,46.06 -29.06,68.21 -10.32,22.18 -19.08,50.14 -23.01,73.11 -3.66,22.38 1.24,26.22 -11.4,39.19 -11.71,-12.13 -16.83,-67.63 -23.29,-86.58 -11.04,-29.92 -38.24,-66.64 -40.18,-93.91zm-148.01 275.22c0.47,-9.44 -4.25,-92.48 -5.79,-109.97 13.46,-13.08 3.54,-2.68 10.17,-21.36 4.86,-13.71 3.91,-11.74 10.48,-25.07 6.37,-21.07 4.23,-14.06 17.77,-20.53 21.6,12 28.74,46.62 34.56,73.67l0.83 86.87c-8.8,11.03 -8.87,22.31 -14.27,36.16 -7.32,18.78 -8.31,26.27 -30.75,27.89l-23 -47.67zm1648.11 2511.76l137.23 2.69 0.53 -138.88 -137.45 0.25 -0.31 135.95zm-3011.68 2.36l137.83 -0.28 0.61 -136.91 -137.69 -1.08 -0.75 138.27zm286.34 0.1l137.95 -0.78 1.51 -137.16 -137.77 -0.19 -1.7 138.13zm2394.35 -3271.56c20.69,23.01 72.72,81.59 98.39,89.3 23.86,-34.34 258.42,-249.29 272.26,-278.38l-89.84 -93.43c-13.88,6.65 -275.73,265.51 -280.8,282.51zm-2583.2 -190.44c8.24,15.82 267.2,275.55 281.77,280.25l91.32 -89.31c-6.71,-18.05 -264.52,-274.77 -280.4,-281.84l-92.69 90.91zm-384.86 1163.99c22.91,6.24 388.86,6.05 426.15,1.52l-0.43 -135.42c-34.27,-4.45 -405.05,-4.15 -425.12,1.38l-0.59 132.51z"/>
 </g>
</svg>
